FFmpeg version SVN-r25716, Copyright (c) 2000-2010 the FFmpeg developers  built on Nov 10 2010 12:23:18 with gcc 4.1.2 20080704 (Red Hat 4.1.2-48)  configuration: --enable-libmp3lame --enable-shared --disable-mmx --arch=x86_64  libavutil     50.33. 0 / 50.33. 0  libavcore      0.12. 1 /  0.12. 1  libavcodec    52.94. 4 / 52.94. 4  libavformat   52.84. 0 / 52.84. 0  libavdevice   52. 2. 2 / 52. 2. 2  libavfilter    1.59. 0 /  1.59. 0  libswscale     0.12. 0 /  0.12. 0Input #0, mov,mp4,m4a,3gp,3g2,mj2, from '/RAID10/data/converted_video_files/7756.mov':  Duration: 00:00:08.03, start: 0.000000, bitrate: 3101 kb/s    Stream #0.0(eng): Video: h264, yuv420p, 528x528 [PAR 1:1 DAR 1:1], 3090 kb/s, 30 fps, 30 tbr, 90k tbn, 60 tbc    Stream #0.1(eng): Audio: aac, 48000 Hz, stereo, s16, 3 kb/s[buffer @ 0x1c7c27a0] w:528 h:528 pixfmt:yuv420pOutput #0, flv, to '/RAID10/data/converted_video_files/7756.flv':  Metadata:    encoder         : Lavf52.84.0    Stream #0.0(eng): Video: flv, yuv420p, 528x528 [PAR 1:1 DAR 1:1], q=2-31, 600 kb/s, 1k tbn, 24 tbc    Stream #0.1(eng): Audio: libmp3lame, 22050 Hz, stereo, s16, 96 kb/sStream mapping:  Stream #0.0 -> #0.0  Stream #0.1 -> #0.1Press [q] to stop encodingframe=   40 fps=  0 q=10.0 size=     287kB time=1.46 bitrate=1608.3kbits/s dup=0 drop=9    frame=   75 fps= 72 q=8.9 size=     432kB time=2.93 bitrate=1210.3kbits/s dup=0 drop=18    frame=  112 fps= 72 q=9.1 size=     574kB time=4.49 bitrate=1047.2kbits/s dup=0 drop=28    frame=  150 fps= 73 q=8.4 size=     721kB time=6.06 bitrate= 975.0kbits/s dup=0 drop=37    frame=  187 fps= 73 q=7.1 size=     849kB time=7.60 bitrate= 914.9kbits/s dup=0 drop=46    frame=  193 fps= 73 q=6.1 Lsize=     887kB time=8.02 bitrate= 906.1kbits/s dup=0 drop=48    video:785kB audio:94kB global headers:0kB muxing overhead 0.924299%